<mxfile host="65bd71144e">
    <diagram id="918RAsJPKjZPb-R8vQpi" name="Page-1">
        <mxGraphModel dx="2742" dy="1075" grid="1" gridSize="10" guides="1" tooltips="1" connect="1" arrows="1" fold="1" page="1" pageScale="1" pageWidth="827" pageHeight="1169" math="0" shadow="0">
            <root>
                <mxCell id="0"/>
                <mxCell id="1" parent="0"/>
                <mxCell id="27" value="" style="rounded=0;whiteSpace=wrap;html=1;" vertex="1" parent="1">
                    <mxGeometry x="-50" y="1270" width="550" height="290" as="geometry"/>
                </mxCell>
                <mxCell id="23" value="" style="rounded=0;whiteSpace=wrap;html=1;" vertex="1" parent="1">
                    <mxGeometry x="-70" y="780" width="710" height="410" as="geometry"/>
                </mxCell>
                <mxCell id="15" value="" style="rounded=0;whiteSpace=wrap;html=1;" vertex="1" parent="1">
                    <mxGeometry x="840" y="770" width="610" height="250" as="geometry"/>
                </mxCell>
                <mxCell id="12" value="" style="rounded=0;whiteSpace=wrap;html=1;" vertex="1" parent="1">
                    <mxGeometry x="1290" y="1150" width="360" height="1010" as="geometry"/>
                </mxCell>
                <mxCell id="3" value="" style="verticalLabelPosition=bottom;verticalAlign=top;html=1;shape=mxgraph.basic.rect;fillColor2=none;strokeWidth=1;size=20;indent=5;" parent="1" vertex="1">
                    <mxGeometry x="-80" y="280" width="480" height="360" as="geometry"/>
                </mxCell>
                <mxCell id="4" value="" style="verticalLabelPosition=bottom;verticalAlign=top;html=1;shape=mxgraph.basic.rect;fillColor2=none;strokeWidth=1;size=20;indent=5;" parent="1" vertex="1">
                    <mxGeometry x="800" y="280" width="480" height="360" as="geometry"/>
                </mxCell>
                <mxCell id="5" value="Shared" style="text;html=1;strokeColor=none;fillColor=none;align=center;verticalAlign=middle;whiteSpace=wrap;rounded=0;" parent="1" vertex="1">
                    <mxGeometry x="100" y="250" width="60" height="30" as="geometry"/>
                </mxCell>
                <mxCell id="6" value="DEV" style="text;html=1;strokeColor=none;fillColor=none;align=center;verticalAlign=middle;whiteSpace=wrap;rounded=0;" parent="1" vertex="1">
                    <mxGeometry x="1000" y="250" width="60" height="30" as="geometry"/>
                </mxCell>
                <mxCell id="8" value="Policy-DEV:&amp;nbsp; PowerUSerAccess&amp;nbsp;" style="text;html=1;strokeColor=none;fillColor=none;align=center;verticalAlign=middle;whiteSpace=wrap;rounded=0;" parent="1" vertex="1">
                    <mxGeometry x="900" y="1139" width="190" height="30" as="geometry"/>
                </mxCell>
                <mxCell id="9" value="{&#10;    &quot;Version&quot;: &quot;2012-10-17&quot;,&#10;    &quot;Statement&quot;: [&#10;        {&#10;            &quot;Action&quot;: [&#10;                &quot;iam:CreateInstanceProfile&quot;,&#10;                &quot;iam:DeleteInstanceProfile&quot;,&#10;                &quot;iam:ListInstanceProfileTags&quot;,&#10;                &quot;iam:TagInstanceProfile&quot;,&#10;                &quot;iam:UntagInstanceProfile&quot;,&#10;                &quot;iam:GetRole&quot;,&#10;                &quot;iam:GetInstanceProfile&quot;,&#10;                &quot;iam:RemoveRoleFromInstanceProfile&quot;,&#10;                &quot;iam:CreateRole&quot;,&#10;                &quot;iam:DeleteRole&quot;,&#10;                &quot;iam:CreatePolicy&quot;,&#10;                &quot;iam:CreatePolicyVersion&quot;,&#10;                &quot;iam:GetPolicy&quot;,&#10;                &quot;iam:GetUserPolicy&quot;,&#10;                &quot;iam:DeletePolicy&quot;,&#10;                &quot;iam:DeletePolicyVersion&quot;,&#10;                &quot;iam:AttachRolePolicy&quot;,&#10;                &quot;iam:GetPolicyVersion&quot;,&#10;                &quot;iam:PutRolePolicy&quot;,&#10;                &quot;iam:ListPolicyVersions&quot;,&#10;                &quot;iam:ListPolicies&quot;,&#10;                &quot;iam:ListRolePolicies&quot;,&#10;                &quot;iam:ListInstanceProfiles&quot;,&#10;                &quot;iam:ListEntitiesForPolicy&quot;,&#10;                &quot;iam:ListAccessKeys&quot;,&#10;                &quot;iam:AddRoleToInstanceProfile&quot;,&#10;                &quot;iam:ListInstanceProfilesForRole&quot;,&#10;                &quot;iam:PassRole&quot;,&#10;                &quot;iam:DetachRolePolicy&quot;,&#10;                &quot;iam:DeleteRolePolicy&quot;,&#10;                &quot;iam:GetRolePolicy&quot;,&#10;                &quot;iam:ListAttachedRolePolicies&quot;,&#10;                &quot;iam:TagPolicy&quot;,&#10;                &quot;iam:UntagPolicy&quot;,&#10;                &quot;iam:TagRole&quot;,&#10;                &quot;iam:UntagRole&quot;,&#10;                &quot;iam:CreateOpenIDConnectProvider&quot;,&#10;                &quot;iam:UpdateAssumeRolePolicy&quot;,&#10;                &quot;iam:CreateAccessKey&quot;,&#10;                &quot;iam:CreateUser&quot;,&#10;                &quot;iam:DeleteAccessKey&quot;,&#10;                &quot;iam:DeleteUser&quot;,&#10;                &quot;iam:DeleteUserPolicy&quot;,&#10;                &quot;iam:GetUser&quot;,&#10;                &quot;iam:GetUserPolicy&quot;,&#10;                &quot;iam:ListGroupsForUser&quot;,&#10;                &quot;iam:PutUserPolicy&quot;,&#10;                &quot;iam:TagUser&quot;&#10;            ],&#10;            &quot;Resource&quot;: &quot;*&quot;,&#10;            &quot;Effect&quot;: &quot;Allow&quot;,&#10;            &quot;Sid&quot;: &quot;AllowUserToSetupOsilEnv&quot;&#10;        },&#10;        {&#10;            &quot;Effect&quot;: &quot;Allow&quot;,&#10;            &quot;Action&quot;: [&#10;                &quot;account:DeleteAlternateContact&quot;,&#10;                &quot;account:GetAlternateContact&quot;,&#10;                &quot;account:PutAlternateContact&quot;&#10;            ],&#10;            &quot;Resource&quot;: &quot;*&quot;&#10;        }&#10;    ]&#10;}" style="text;whiteSpace=wrap;html=1;" vertex="1" parent="1">
                    <mxGeometry x="1300" y="1150" width="300" height="1020" as="geometry"/>
                </mxCell>
                <mxCell id="10" value="Policy-DEV: external-InfrastructureDeplyomentPolicy" style="text;html=1;strokeColor=none;fillColor=none;align=center;verticalAlign=middle;whiteSpace=wrap;rounded=0;" vertex="1" parent="1">
                    <mxGeometry x="1340" y="1120" width="300" height="30" as="geometry"/>
                </mxCell>
                <mxCell id="11" value="" style="rounded=0;whiteSpace=wrap;html=1;" vertex="1" parent="1">
                    <mxGeometry x="840" y="1160" width="350" height="390" as="geometry"/>
                </mxCell>
                <mxCell id="7" value="{&#10;    &quot;Version&quot;: &quot;2012-10-17&quot;,&#10;    &quot;Statement&quot;: [&#10;        {&#10;            &quot;Effect&quot;: &quot;Allow&quot;,&#10;            &quot;NotAction&quot;: [&#10;                &quot;iam:*&quot;,&#10;                &quot;organizations:*&quot;,&#10;                &quot;account:*&quot;&#10;            ],&#10;            &quot;Resource&quot;: &quot;*&quot;&#10;        },&#10;        {&#10;            &quot;Effect&quot;: &quot;Allow&quot;,&#10;            &quot;Action&quot;: [&#10;                &quot;iam:CreateServiceLinkedRole&quot;,&#10;                &quot;iam:DeleteServiceLinkedRole&quot;,&#10;                &quot;iam:ListRoles&quot;,&#10;                &quot;organizations:DescribeOrganization&quot;,&#10;                &quot;account:ListRegions&quot;,&#10;                &quot;account:GetAccountInformation&quot;&#10;            ],&#10;            &quot;Resource&quot;: &quot;*&quot;&#10;        }&#10;    ]&#10;}" style="text;whiteSpace=wrap;html=1;" parent="1" vertex="1">
                    <mxGeometry x="880" y="1160" width="290" height="400" as="geometry"/>
                </mxCell>
                <mxCell id="13" value="Role-DEV:&amp;nbsp; shared-infrastructure-deployer" style="text;html=1;strokeColor=none;fillColor=none;align=center;verticalAlign=middle;whiteSpace=wrap;rounded=0;" vertex="1" parent="1">
                    <mxGeometry x="840" y="720" width="260" height="30" as="geometry"/>
                </mxCell>
                <mxCell id="14" value="{&lt;br&gt;&amp;nbsp; &amp;nbsp; &quot;Version&quot;: &quot;2012-10-17&quot;,&lt;br&gt;&amp;nbsp; &amp;nbsp; &quot;Statement&quot;: [&lt;br&gt;&amp;nbsp; &amp;nbsp; &amp;nbsp; &amp;nbsp; {&lt;br&gt;&amp;nbsp; &amp;nbsp; &amp;nbsp; &amp;nbsp; &amp;nbsp; &amp;nbsp; &quot;Effect&quot;: &quot;Allow&quot;,&lt;br&gt;&amp;nbsp; &amp;nbsp; &amp;nbsp; &amp;nbsp; &amp;nbsp; &amp;nbsp; &quot;Principal&quot;: {&lt;br&gt;&amp;nbsp; &amp;nbsp; &amp;nbsp; &amp;nbsp; &amp;nbsp; &amp;nbsp; &amp;nbsp; &amp;nbsp; &quot;AWS&quot;: [&lt;br&gt;&amp;nbsp; &amp;nbsp; &amp;nbsp; &amp;nbsp; &amp;nbsp; &amp;nbsp; &amp;nbsp; &amp;nbsp; &amp;nbsp; &amp;nbsp; &quot;arn:aws:iam::&amp;lt; Dev-Account-ID &amp;gt;:role/PA_FULLADMIN&quot;,&lt;br&gt;&amp;nbsp; &amp;nbsp; &amp;nbsp; &amp;nbsp; &amp;nbsp; &amp;nbsp; &amp;nbsp; &amp;nbsp; &amp;nbsp; &amp;nbsp; &quot;arn:aws:iam::&amp;lt; Shared-Account-ID &amp;gt;:role/assumeExternalEKSClusters&quot;&lt;br&gt;&amp;nbsp; &amp;nbsp; &amp;nbsp; &amp;nbsp; &amp;nbsp; &amp;nbsp; &amp;nbsp; &amp;nbsp; ]&lt;br&gt;&amp;nbsp; &amp;nbsp; &amp;nbsp; &amp;nbsp; &amp;nbsp; &amp;nbsp; },&lt;br&gt;&amp;nbsp; &amp;nbsp; &amp;nbsp; &amp;nbsp; &amp;nbsp; &amp;nbsp; &quot;Action&quot;: &quot;sts:AssumeRole&quot;&lt;br&gt;&amp;nbsp; &amp;nbsp; &amp;nbsp; &amp;nbsp; }&lt;br&gt;&amp;nbsp; &amp;nbsp; ]&lt;br&gt;}" style="text;whiteSpace=wrap;html=1;" vertex="1" parent="1">
                    <mxGeometry x="840" y="765" width="460" height="240" as="geometry"/>
                </mxCell>
                <mxCell id="16" value="Trust-relationships" style="text;html=1;strokeColor=none;fillColor=none;align=center;verticalAlign=middle;whiteSpace=wrap;rounded=0;" vertex="1" parent="1">
                    <mxGeometry x="960" y="740" width="170" height="30" as="geometry"/>
                </mxCell>
                <mxCell id="19" value="" style="endArrow=classic;html=1;" edge="1" parent="1">
                    <mxGeometry width="50" height="50" relative="1" as="geometry">
                        <mxPoint x="1070" y="1030" as="sourcePoint"/>
                        <mxPoint x="1010" y="1130" as="targetPoint"/>
                    </mxGeometry>
                </mxCell>
                <mxCell id="20" value="" style="endArrow=classic;html=1;" edge="1" parent="1">
                    <mxGeometry width="50" height="50" relative="1" as="geometry">
                        <mxPoint x="1230" y="1030" as="sourcePoint"/>
                        <mxPoint x="1310" y="1140" as="targetPoint"/>
                    </mxGeometry>
                </mxCell>
                <mxCell id="21" value="Role-SHARED:&amp;nbsp; assumeExternalEKSCluster" style="text;html=1;strokeColor=none;fillColor=none;align=center;verticalAlign=middle;whiteSpace=wrap;rounded=0;" vertex="1" parent="1">
                    <mxGeometry x="-70" y="730" width="260" height="30" as="geometry"/>
                </mxCell>
                <mxCell id="22" value="{&#10;    &quot;Version&quot;: &quot;2012-10-17&quot;,&#10;    &quot;Statement&quot;: [&#10;        {&#10;            &quot;Effect&quot;: &quot;Allow&quot;,&#10;            &quot;Principal&quot;: {&#10;                &quot;Federated&quot;: &quot;arn:aws:iam::624991366826:oidc-provider/oidc.eks.eu-west-1.amazonaws.com/id/3785B898EF3AD319B8A2E7BC920EA94D&quot;&#10;            },&#10;            &quot;Action&quot;: [&#10;                &quot;sts:AssumeRoleWithWebIdentity&quot;,&#10;                &quot;sts:AssumeRole&quot;&#10;            ],&#10;            &quot;Condition&quot;: {&#10;                &quot;StringEquals&quot;: {&#10;                    &quot;oidc.eks.eu-west-1.amazonaws.com/id/3785B898EF3AD319B8A2E7BC920EA94D:aud&quot;: &quot;sts.amazonaws.com&quot;,&#10;                    &quot;oidc.eks.eu-west-1.amazonaws.com/id/3785B898EF3AD319B8A2E7BC920EA94D:sub&quot;: [&#10;                        &quot;system:serviceaccount:argocd:argocd-server&quot;,&#10;                        &quot;system:serviceaccount:argocd:argocd-application-controller&quot;&#10;                    ]&#10;                }&#10;            }&#10;        }&#10;    ]&#10;}" style="text;whiteSpace=wrap;html=1;" vertex="1" parent="1">
                    <mxGeometry x="-60" y="780" width="640" height="410" as="geometry"/>
                </mxCell>
                <mxCell id="24" value="Trust - relationship" style="text;html=1;strokeColor=none;fillColor=none;align=center;verticalAlign=middle;whiteSpace=wrap;rounded=0;" vertex="1" parent="1">
                    <mxGeometry x="190" y="760" width="120" height="30" as="geometry"/>
                </mxCell>
                <mxCell id="25" value="{&#10;    &quot;Version&quot;: &quot;2012-10-17&quot;,&#10;    &quot;Statement&quot;: [&#10;        {&#10;            &quot;Sid&quot;: &quot;VisualEditor0&quot;,&#10;            &quot;Effect&quot;: &quot;Allow&quot;,&#10;            &quot;Action&quot;: [&#10;                &quot;sts:AssumeRoleWithWebIdentity&quot;,&#10;                &quot;sts:AssumeRole&quot;&#10;            ],&#10;            &quot;Resource&quot;: [&#10;                &quot;arn:aws:iam::003476103703:role/shared-infrastructure-deployer&quot;,&#10;                &quot;arn:aws:iam::570278786526:role/shared-infrastructure-deployer&quot;,&#10;                &quot;arn:aws:iam::154005642806:role/shared-infrastructure-deployer&quot;,&#10;                &quot;arn:aws:iam::923520271210:role/shared-infrastructure-deployer&quot;&#10;            ]&#10;        }&#10;    ]&#10;}" style="text;whiteSpace=wrap;html=1;" vertex="1" parent="1">
                    <mxGeometry x="-40" y="1270" width="440" height="300" as="geometry"/>
                </mxCell>
                <mxCell id="26" value="Policy-SHARED: assumeExternalEKSClusters" style="text;html=1;strokeColor=none;fillColor=none;align=center;verticalAlign=middle;whiteSpace=wrap;rounded=0;" vertex="1" parent="1">
                    <mxGeometry x="-50" y="1220" width="300" height="30" as="geometry"/>
                </mxCell>
            </root>
        </mxGraphModel>
    </diagram>
</mxfile>